<svg width="29" height="29" viewBox="0 0 29 29" fill="none" xmlns="http://www.w3.org/2000/svg">
<path d="M18.9831 15.3579C20.1677 14.4259 21.0324 13.1478 21.4568 11.7014C21.8813 10.2551 21.8443 8.7124 21.3512 7.28802C20.858 5.86364 19.9332 4.62838 18.7053 3.75411C17.4774 2.87984 16.0075 2.41002 14.5002 2.41002C12.9928 2.41002 11.523 2.87984 10.2951 3.75411C9.06721 4.62838 8.14235 5.86364 7.64919 7.28802C7.15603 8.7124 7.11909 10.2551 7.54352 11.7014C7.96794 13.1478 8.83262 14.4259 10.0173 15.3579C7.98736 16.1712 6.21619 17.52 4.89259 19.2607C3.56899 21.0014 2.74257 23.0687 2.50143 25.2421C2.48397 25.4008 2.49794 25.5613 2.54254 25.7146C2.58714 25.8679 2.66149 26.0109 2.76136 26.1354C2.96304 26.387 3.25638 26.5481 3.57685 26.5833C3.89732 26.6186 4.21866 26.5251 4.4702 26.3234C4.72173 26.1217 4.88284 25.8284 4.9181 25.5079C5.18343 23.1459 6.30972 20.9643 8.08178 19.3802C9.85384 17.7961 12.1474 16.9203 14.5243 16.9203C16.9013 16.9203 19.1949 17.7961 20.9669 19.3802C22.739 20.9643 23.8653 23.1459 24.1306 25.5079C24.1634 25.8048 24.3051 26.079 24.5283 26.2776C24.7514 26.4762 25.0402 26.5851 25.3389 26.5833H25.4718C25.7886 26.5469 26.0781 26.3867 26.2773 26.1378C26.4764 25.8888 26.5692 25.5712 26.5352 25.2542C26.2929 23.0746 25.462 21.002 24.1316 19.2587C22.8012 17.5153 21.0214 16.1669 18.9831 15.3579ZM14.5002 14.5C13.5442 14.5 12.6098 14.2165 11.8149 13.6854C11.0201 13.1543 10.4006 12.3995 10.0348 11.5163C9.66894 10.6331 9.57322 9.6613 9.75972 8.72372C9.94621 7.78615 10.4065 6.92493 11.0825 6.24898C11.7585 5.57302 12.6197 5.11269 13.5572 4.9262C14.4948 4.7397 15.4666 4.83542 16.3498 5.20124C17.233 5.56707 17.9879 6.18657 18.5189 6.9814C19.05 7.77624 19.3335 8.71072 19.3335 9.66666C19.3335 10.9485 18.8243 12.1779 17.9179 13.0843C17.0114 13.9908 15.7821 14.5 14.5002 14.5Z" fill="white" fill-opacity="0.75"/>
</svg>
