<svg width="24" height="24" viewBox="0 0 24 24" fill="none" xmlns="http://www.w3.org/2000/svg">
<path d="M20.9966 13.6718C20.9955 15.3048 20.3466 16.8708 19.1922 18.0259C18.0378 19.181 16.4722 19.8309 14.8391 19.833H3.75339C3.55448 19.833 3.36371 19.754 3.22306 19.6133C3.08241 19.4727 3.00339 19.2819 3.00339 19.083C3.00339 18.8841 3.08241 18.6933 3.22306 18.5527C3.36371 18.412 3.55448 18.333 3.75339 18.333H14.8391C16.0676 18.322 17.242 17.8263 18.1068 16.9537C18.9715 16.0811 19.4567 14.9023 19.4567 13.6738C19.4567 12.4453 18.9715 11.2665 18.1068 10.394C17.242 9.52139 16.0676 9.02566 14.8391 9.01463H5.84664L8.30101 11.0325C8.37758 11.0949 8.44107 11.1718 8.48784 11.2588C8.53461 11.3458 8.56374 11.4411 8.57356 11.5394C8.58337 11.6377 8.57368 11.7369 8.54504 11.8315C8.5164 11.926 8.46937 12.0139 8.40665 12.0902C8.34394 12.1665 8.26677 12.2297 8.17958 12.276C8.09239 12.3224 7.99689 12.3512 7.89858 12.3605C7.80026 12.3699 7.70106 12.3598 7.60666 12.3308C7.51227 12.3017 7.42454 12.2543 7.34851 12.1913L3.27714 8.84363C3.26814 8.83613 3.26139 8.82713 3.25276 8.81926C3.23324 8.80155 3.21471 8.78277 3.19726 8.76301L3.19126 8.75738C3.18601 8.75138 3.17926 8.74688 3.17401 8.74088V8.73863C3.16614 8.72926 3.16051 8.71838 3.15339 8.70863C3.13864 8.68903 3.12499 8.66863 3.11251 8.64751C3.10951 8.64263 3.10539 8.63813 3.10276 8.63288C3.10014 8.62763 3.09339 8.62051 3.09001 8.61376C3.08664 8.60701 3.08214 8.59351 3.07764 8.58376C3.06751 8.56201 3.05889 8.53988 3.05064 8.51701L3.04801 8.51026C3.04051 8.48888 3.03376 8.46713 3.02814 8.44538C3.02251 8.42363 3.01876 8.40076 3.01539 8.37788C3.01314 8.36401 3.00864 8.35088 3.00751 8.33701C3.00639 8.32313 3.00751 8.31038 3.00751 8.29726C3.00751 8.28413 3.00414 8.27588 3.00414 8.26463C3.00414 8.25338 3.00714 8.24288 3.00751 8.23163C3.00789 8.22038 3.00751 8.20538 3.00751 8.19226C3.00751 8.17913 3.01314 8.16488 3.01539 8.15101C3.01876 8.12813 3.02289 8.10563 3.02814 8.08351C3.03339 8.06138 3.04051 8.04001 3.04801 8.01863L3.05064 8.01188C3.05889 7.98901 3.06751 7.96688 3.07764 7.94513C3.08214 7.93538 3.08476 7.92488 3.09001 7.91513C3.09526 7.90538 3.09901 7.90276 3.10276 7.89601C3.10651 7.88926 3.10951 7.88626 3.11251 7.88138C3.12475 7.86028 3.13814 7.83988 3.15264 7.82026C3.15976 7.81051 3.16539 7.79963 3.17326 7.79026V7.78838C3.18076 7.77901 3.19014 7.77263 3.19801 7.76363C3.21526 7.74488 3.23289 7.72613 3.25201 7.70963C3.26064 7.70176 3.26739 7.69276 3.27639 7.68526L3.28014 7.68188L7.35001 4.33763C7.42604 4.27459 7.51376 4.22718 7.60816 4.19813C7.70256 4.16908 7.80176 4.15895 7.90008 4.16834C7.99839 4.17773 8.09389 4.20645 8.18108 4.25284C8.26827 4.29924 8.34544 4.3624 8.40815 4.43869C8.47087 4.51499 8.5179 4.60292 8.54654 4.69744C8.57518 4.79196 8.58487 4.89121 8.57506 4.98948C8.56524 5.08776 8.53611 5.18313 8.48934 5.27012C8.44257 5.35711 8.37908 5.434 8.30251 5.49638L5.84814 7.51463H14.8406C16.4728 7.51682 18.0375 8.16625 19.1916 9.32049C20.3456 10.4747 20.9948 12.0396 20.9966 13.6718Z" fill="white" fill-opacity="0.75"/>
</svg>
