<svg width="31" height="31" viewBox="0 0 31 31" fill="none" xmlns="http://www.w3.org/2000/svg">
<path d="M1.5 13.8545H12.3545C13.1831 13.8545 13.8545 13.1826 13.8545 12.3545V1.5C13.8545 0.67187 13.1831 0 12.3545 0H1.5C0.67139 0 0 0.67188 0 1.5V12.3545C0 13.1826 0.67139 13.8545 1.5 13.8545ZM3 3H10.8545V10.8545H3V3ZM29.5 0H18.6455C17.8169 0 17.1455 0.67188 17.1455 1.5V12.3545C17.1455 13.1826 17.8169 13.8545 18.6455 13.8545H29.5C30.3286 13.8545 31 13.1826 31 12.3545V1.5C31 0.67188 30.3286 0 29.5 0ZM28 10.8545H20.1455V3H28V10.8545ZM1.5 31H12.3545C13.1831 31 13.8545 30.3281 13.8545 29.5V18.6455C13.8545 17.8174 13.1831 17.1455 12.3545 17.1455H1.5C0.67139 17.1455 0 17.8174 0 18.6455V29.5C0 30.3281 0.67139 31 1.5 31ZM3 20.1455H10.8545V28H3V20.1455ZM29.5 17.1455H18.6455C17.8169 17.1455 17.1455 17.8174 17.1455 18.6455V29.5C17.1455 30.3281 17.8169 31 18.6455 31H29.5C30.3286 31 31 30.3281 31 29.5V18.6455C31 17.8174 30.3286 17.1455 29.5 17.1455ZM28 28H20.1455V20.1455H28V28Z" fill="white" fill-opacity="0.75"/>
</svg>
