<svg width="32" height="33" viewBox="0 0 32 33" fill="none" xmlns="http://www.w3.org/2000/svg">
<g filter="url(#filter0_d_18_2548)">
<path d="M25.7777 11.9192L18.4445 5.87747C17.7722 5.3124 16.9019 5 16 5C15.0981 5 14.2279 5.3124 13.5556 5.87747L6.22233 11.9192C5.83412 12.2455 5.52432 12.6458 5.31358 13.0934C5.10284 13.541 4.99598 14.0257 5.00012 14.5151V24.5541C5.00012 25.468 5.38642 26.3445 6.07405 26.9907C6.76168 27.637 7.6943 28 8.66676 28H23.3333C24.3058 28 25.2384 27.637 25.926 26.9907C26.6137 26.3445 27 25.468 27 24.5541V14.5036C27.0024 14.0161 26.8947 13.5337 26.684 13.0882C26.4733 12.6427 26.1644 12.2443 25.7777 11.9192V11.9192ZM18.4445 25.7027H13.5556V19.9596C13.5556 19.655 13.6844 19.3628 13.9136 19.1474C14.1428 18.932 14.4537 18.811 14.7778 18.811H17.2223C17.5464 18.811 17.8573 18.932 18.0865 19.1474C18.3157 19.3628 18.4445 19.655 18.4445 19.9596V25.7027ZM24.5555 24.5541C24.5555 24.8588 24.4268 25.1509 24.1976 25.3663C23.9683 25.5817 23.6575 25.7027 23.3333 25.7027H20.8889V19.9596C20.8889 19.0457 20.5026 18.1692 19.815 17.523C19.1273 16.8768 18.1947 16.5137 17.2223 16.5137H14.7778C13.8054 16.5137 12.8727 16.8768 12.1851 17.523C11.4975 18.1692 11.1112 19.0457 11.1112 19.9596V25.7027H8.66676C8.34261 25.7027 8.03173 25.5817 7.80252 25.3663C7.57331 25.1509 7.44454 24.8588 7.44454 24.5541V14.5036C7.44476 14.3406 7.48193 14.1794 7.55359 14.0309C7.62524 13.8823 7.72972 13.7498 7.8601 13.6422L15.1934 7.6119C15.4164 7.42775 15.7032 7.32619 16 7.32619C16.2969 7.32619 16.5837 7.42775 16.8067 7.6119L24.14 13.6422C24.2704 13.7498 24.3748 13.8823 24.4465 14.0309C24.5181 14.1794 24.5553 14.3406 24.5555 14.5036V24.5541Z" fill="white"/>
</g>
<defs>
<filter id="filter0_d_18_2548" x="0" y="0" width="32" height="33" filterUnits="userSpaceOnUse" color-interpolation-filters="sRGB">
<feFlood flood-opacity="0" result="BackgroundImageFix"/>
<feColorMatrix in="SourceAlpha" type="matrix" values="0 0 0 0 0 0 0 0 0 0 0 0 0 0 0 0 0 0 127 0" result="hardAlpha"/>
<feOffset/>
<feGaussianBlur stdDeviation="2.5"/>
<feComposite in2="hardAlpha" operator="out"/>
<feColorMatrix type="matrix" values="0 0 0 0 1 0 0 0 0 1 0 0 0 0 1 0 0 0 0.25 0"/>
<feBlend mode="normal" in2="BackgroundImageFix" result="effect1_dropShadow_18_2548"/>
<feBlend mode="normal" in="SourceGraphic" in2="effect1_dropShadow_18_2548" result="shape"/>
</filter>
</defs>
</svg>
