<svg width="36" height="36" viewBox="0 0 36 36" fill="none" xmlns="http://www.w3.org/2000/svg">
<path d="M15.525 12.555C15.7958 12.7154 16.1047 12.8 16.4194 12.8C16.7341 12.8 17.043 12.7154 17.3138 12.555L20.5425 10.53C20.796 10.3725 21.0051 10.1529 21.1501 9.89212C21.2951 9.63129 21.3712 9.3378 21.3712 9.03937C21.3712 8.74095 21.2951 8.44746 21.1501 8.18663C21.0051 7.92581 20.796 7.70626 20.5425 7.54875L17.3025 5.52375C17.0396 5.36122 16.7385 5.27098 16.4296 5.26215C16.1207 5.25333 15.8149 5.32624 15.5432 5.47351C15.2715 5.62077 15.0435 5.83718 14.8823 6.10083C14.7211 6.36448 14.6323 6.66604 14.625 6.975V11.025C14.6255 11.337 14.7091 11.6432 14.8673 11.9122C15.0255 12.1811 15.2525 12.403 15.525 12.555ZM16.875 7.875L18.6863 9L16.875 10.125V7.875Z" fill="white" fill-opacity="0.75"/>
<path d="M29.25 7.875H24.75V4.5C24.75 3.90326 24.5129 3.33097 24.091 2.90901C23.669 2.48705 23.0967 2.25 22.5 2.25H13.5C12.9033 2.25 12.331 2.48705 11.909 2.90901C11.4871 3.33097 11.25 3.90326 11.25 4.5V7.875H6.75C6.15326 7.875 5.58097 8.11205 5.15901 8.53401C4.73705 8.95597 4.5 9.52826 4.5 10.125V31.5C4.5 32.0967 4.73705 32.669 5.15901 33.091C5.58097 33.5129 6.15326 33.75 6.75 33.75H29.25C29.8467 33.75 30.419 33.5129 30.841 33.091C31.2629 32.669 31.5 32.0967 31.5 31.5V10.125C31.5 9.52826 31.2629 8.95597 30.841 8.53401C30.419 8.11205 29.8467 7.875 29.25 7.875ZM29.25 10.125V13.5H24.75V10.125H29.25ZM13.5 4.5H22.5V13.5H13.5V4.5ZM6.75 10.125H11.25V13.5H6.75V10.125ZM13.5 31.5V23.625C13.5 23.0283 13.7371 22.456 14.159 22.034C14.581 21.6121 15.1533 21.375 15.75 21.375H16.875V31.5H13.5ZM19.125 31.5V21.375H20.25C20.8467 21.375 21.419 21.6121 21.841 22.034C22.2629 22.456 22.5 23.0283 22.5 23.625V31.5H19.125ZM24.75 31.5V23.625C24.75 22.4315 24.2759 21.2869 23.432 20.443C22.5881 19.5991 21.4435 19.125 20.25 19.125H15.75C14.5565 19.125 13.4119 19.5991 12.568 20.443C11.7241 21.2869 11.25 22.4315 11.25 23.625V31.5H6.75V15.75H29.25V31.5H24.75Z" fill="white" fill-opacity="0.75"/>
</svg>
