<svg width="42" height="42" viewBox="0 0 42 42" fill="none" xmlns="http://www.w3.org/2000/svg">
<path d="M10.2536 23.2184C11.5877 22.9752 12.6786 22.0231 13.1003 20.7331C13.1628 20.5406 13.2091 20.3462 13.2391 20.1515C13.4516 18.7885 12.8874 17.4129 11.7373 16.5963C11.7369 16.5963 11.7365 16.5959 11.7362 16.5956C11.7358 16.5952 11.735 16.5948 11.7343 16.5941C11.7317 16.5922 11.7284 16.5911 11.7258 16.5893C11.4245 16.3738 11.0924 16.2061 10.74 16.0929C10.3702 15.9729 9.98743 15.9122 9.60207 15.9122C8.00216 15.9122 6.59474 16.9346 6.10056 18.4568C5.47347 20.3858 6.53366 22.4659 8.46229 23.0929C8.83099 23.214 9.21561 23.2754 9.60466 23.2754C9.819 23.2754 10.0356 23.2566 10.2536 23.2184ZM11.9242 20.6871C11.9098 20.7175 11.8935 20.7467 11.8779 20.7764C11.8439 20.8419 11.808 20.9059 11.7687 20.9677C11.7487 20.9992 11.728 21.0303 11.7069 21.061C11.6654 21.1206 11.6214 21.1773 11.5755 21.2328C11.5537 21.2587 11.5333 21.2857 11.5107 21.3109C11.4419 21.3875 11.37 21.4605 11.293 21.5282C11.2823 21.5374 11.2705 21.5452 11.2597 21.5545C11.1916 21.6126 11.1205 21.6666 11.0465 21.7174C11.015 21.7388 10.9821 21.7581 10.9495 21.7784C10.8929 21.8136 10.8351 21.8469 10.7755 21.8776C10.7389 21.8965 10.7019 21.9147 10.6645 21.9317C10.643 21.9413 10.6208 21.9491 10.599 21.9583C10.5716 21.7196 10.5575 21.4782 10.5575 21.2358C10.5575 20.0349 10.8855 18.8873 11.5111 17.883C11.5485 17.9245 11.5859 17.9656 11.6199 18.0089C11.6451 18.0407 11.6721 18.0718 11.6958 18.1052C11.761 18.1966 11.8198 18.2914 11.872 18.3898C11.8779 18.4006 11.8853 18.4106 11.8909 18.4213C11.9475 18.5312 11.9942 18.646 12.0341 18.7626C12.046 18.797 12.0538 18.8329 12.0641 18.8681C12.0886 18.9518 12.1104 19.0362 12.1263 19.1224C12.1341 19.1661 12.14 19.2101 12.1456 19.2546C12.1563 19.3353 12.163 19.4163 12.1659 19.4978C12.1674 19.5433 12.1689 19.5888 12.1682 19.6344C12.1667 19.7206 12.1589 19.8069 12.1485 19.8935C12.1437 19.9335 12.1411 19.9738 12.1345 20.0138C12.1134 20.1397 12.0852 20.2655 12.0445 20.3899C12.0108 20.4921 11.9694 20.5909 11.9242 20.6871ZM7.15667 18.8C7.50205 17.7368 8.48487 17.0228 9.60207 17.0228C9.87119 17.0228 10.1385 17.0653 10.3987 17.1497C10.4701 17.1727 10.5375 17.2056 10.6067 17.2349C9.84639 18.4298 9.4466 19.8002 9.4466 21.2354C9.4466 21.5456 9.47177 21.8536 9.5099 22.1586C9.27076 22.1497 9.03459 22.1116 8.80693 22.0368C7.45911 21.5989 6.71875 20.1467 7.15667 18.8ZM22.7367 24.745C21.5907 24.3156 20.278 24.4911 19.2871 25.2111C19.1753 25.2918 19.069 25.3784 18.9683 25.4699C18.3601 26.0222 17.9577 26.7614 17.8197 27.5769C17.7975 27.7083 17.7812 27.8416 17.773 27.9763C17.7234 28.8211 17.9711 29.6651 18.4708 30.3536C19.1605 31.3028 20.2743 31.8691 21.4496 31.8691C22.2311 31.8691 22.9788 31.6256 23.6122 31.1658C24.4062 30.5905 24.9286 29.7399 25.0826 28.7707C25.2373 27.7983 25.0033 26.824 24.4244 26.027C23.9987 25.4417 23.4149 24.9979 22.7367 24.745ZM21.4411 25.6205C21.4685 25.6205 21.4952 25.6272 21.5226 25.6279C20.8377 26.3487 19.9982 26.8954 19.0661 27.2275C19.0668 27.2252 19.0675 27.2227 19.0683 27.2204C19.1094 27.1197 19.1571 27.0224 19.2104 26.928C19.2252 26.9017 19.2423 26.8769 19.2582 26.851C19.2993 26.7833 19.3433 26.7174 19.3907 26.6537C19.4129 26.6241 19.4359 26.5952 19.4592 26.5667C19.5077 26.5071 19.5595 26.4501 19.6136 26.3949C19.6372 26.3709 19.6598 26.3461 19.6846 26.3227C19.7646 26.2476 19.8482 26.1758 19.9386 26.1103C20.3798 25.7897 20.8992 25.6205 21.4411 25.6205ZM23.9857 28.5964C23.878 29.2727 23.5141 29.8657 22.96 30.267C22.5172 30.5887 21.9949 30.759 21.4496 30.759C20.6286 30.759 19.8508 30.3636 19.3692 29.7014C19.0986 29.3282 18.9372 28.8896 18.8928 28.4372C20.3928 28.0293 21.7199 27.1645 22.7057 25.9526C23.027 26.1325 23.3068 26.379 23.5256 26.6803C23.9302 27.2367 24.0938 27.9175 23.9857 28.5964ZM14.5651 25.2196C13.945 24.7691 13.1972 24.5311 12.4436 24.5211C12.1252 24.517 11.8065 24.5563 11.4955 24.6344C11.3645 24.6673 11.2342 24.7047 11.1068 24.7524C10.4376 25.0038 9.85713 25.4465 9.42735 26.034C8.84913 26.8273 8.61518 27.799 8.76806 28.7696C8.92095 29.7413 9.44327 30.5946 10.2388 31.1728C10.871 31.6326 11.6181 31.8754 12.3984 31.8754C13.5748 31.8754 14.6898 31.3079 15.3809 30.357C15.8803 29.6695 16.1279 28.8252 16.0783 27.9786C16.0099 26.8706 15.4579 25.8648 14.5651 25.2196ZM12.3643 25.6313C12.4376 25.6301 12.5106 25.6364 12.5835 25.6416C12.6483 25.6461 12.7134 25.6475 12.7771 25.6568C12.8545 25.6679 12.9307 25.6883 13.0066 25.7068C13.0625 25.7205 13.1199 25.7297 13.175 25.7471C13.2654 25.7756 13.352 25.8141 13.4386 25.8526C13.4775 25.8697 13.5182 25.8822 13.5563 25.9015C13.68 25.9637 13.7999 26.0359 13.9135 26.1184C14.0035 26.1836 14.0872 26.2554 14.1671 26.3302C14.1915 26.3531 14.2138 26.3775 14.2371 26.4012C14.2915 26.4568 14.3437 26.5138 14.3926 26.5737C14.4155 26.6019 14.4381 26.63 14.4596 26.6589C14.5073 26.7229 14.5521 26.7895 14.5936 26.8577C14.6087 26.8825 14.6254 26.9065 14.6398 26.9321C14.6935 27.0268 14.7416 27.1242 14.7827 27.2252C14.7835 27.2271 14.7838 27.2289 14.7846 27.2312C13.851 26.8991 13.0099 26.3531 12.324 25.635C12.3373 25.6346 12.3506 25.6316 12.3643 25.6313ZM12.398 30.7649C11.8539 30.7649 11.333 30.5954 10.8914 30.2744C10.3361 29.8709 9.97188 29.2749 9.8649 28.5968C9.75792 27.9193 9.92154 27.2412 10.3243 26.6889C10.5453 26.3868 10.8237 26.1406 11.1402 25.9611C12.1278 27.1701 13.4564 28.033 14.9586 28.4413C14.9141 28.894 14.7527 29.3323 14.4825 29.7047C13.9994 30.3688 13.2206 30.7649 12.398 30.7649ZM16.9161 17.9541C17.1289 17.9541 17.3384 17.936 17.5424 17.9012C18.9706 17.6576 20.1407 16.5926 20.4916 15.1489C20.4916 15.1485 20.4916 15.1478 20.492 15.1471C20.492 15.1463 20.4924 15.1459 20.4924 15.1452C20.4924 15.1448 20.4924 15.1441 20.4924 15.1434C20.5616 14.8657 20.5967 14.5729 20.5967 14.2731C20.5967 12.2434 18.9454 10.5924 16.9157 10.5924C14.886 10.5924 13.235 12.2434 13.235 14.2731C13.235 14.5766 13.2705 14.8724 13.3398 15.1489C13.7429 16.8006 15.2136 17.9541 16.9161 17.9541ZM16.5048 16.8088C16.4607 16.8018 16.4193 16.7892 16.376 16.7799C16.2868 16.761 16.1979 16.7399 16.112 16.7118C16.0635 16.6959 16.0173 16.6763 15.9703 16.6578C15.8929 16.627 15.8166 16.5945 15.743 16.5567C15.6967 16.533 15.6519 16.5075 15.6075 16.4812C15.5364 16.439 15.4679 16.3938 15.4013 16.345C15.3609 16.3153 15.3206 16.2861 15.2821 16.2543C15.2147 16.1987 15.1518 16.1388 15.0903 16.0766C15.0592 16.0447 15.0263 16.0148 14.9967 15.9811C14.9271 15.9033 14.8645 15.8193 14.8046 15.733C14.7886 15.7101 14.7698 15.689 14.7546 15.6653C14.6843 15.5554 14.6221 15.4391 14.5684 15.3177C16.055 14.7225 17.7752 14.721 19.2652 15.3151C19.2119 15.4358 19.1501 15.5513 19.0801 15.6605C19.0598 15.6927 19.0346 15.7212 19.0128 15.7523C18.958 15.83 18.9017 15.9063 18.8391 15.977C18.8062 16.014 18.7699 16.0477 18.7351 16.0829C18.6766 16.1414 18.617 16.1987 18.5534 16.2513C18.513 16.285 18.4704 16.3161 18.4279 16.3472C18.3631 16.3942 18.2968 16.4386 18.2276 16.4793C18.1817 16.5064 18.1358 16.533 18.0884 16.5571C18.0155 16.5945 17.9403 16.6267 17.8641 16.657C17.8163 16.6759 17.7693 16.6959 17.7201 16.7118C17.6346 16.7396 17.5465 16.7603 17.4573 16.7795C17.4139 16.7888 17.3717 16.8014 17.3277 16.8084C17.1933 16.8299 17.056 16.8432 16.9161 16.8432C16.7761 16.8432 16.6392 16.8303 16.5048 16.8088ZM16.9161 11.7029C18.3127 11.7029 19.4507 12.8231 19.4836 14.212C18.6663 13.9118 17.8074 13.7585 16.9201 13.7585C16.0295 13.7585 15.1681 13.9129 14.3489 14.2146C14.3803 12.8246 15.5186 11.7029 16.9161 11.7029ZM20.74 20.7223C20.8455 21.0459 20.9925 21.3479 21.175 21.623C21.7228 22.4481 22.5883 23.0285 23.5911 23.2081C23.5911 23.2081 23.5915 23.2081 23.5919 23.2081C23.5919 23.2081 23.5919 23.2081 23.5922 23.2081C23.5926 23.2081 23.5926 23.2081 23.593 23.2081C23.8062 23.2466 24.0239 23.2662 24.2397 23.2662C24.6221 23.2662 25.0037 23.2058 25.3761 23.0859C27.3059 22.4588 28.3664 20.3773 27.7401 18.4461C27.2463 16.9261 25.8396 15.9048 24.2404 15.9048C23.8543 15.9048 23.4704 15.9659 23.1014 16.0855C22.7445 16.2002 22.4073 16.3709 22.1019 16.5908C20.7859 17.5232 20.2384 19.1839 20.74 20.7223ZM21.694 19.2449C21.6995 19.2013 21.7051 19.1576 21.7128 19.1143C21.7291 19.0265 21.751 18.9403 21.7761 18.8551C21.7858 18.8226 21.7932 18.7889 21.8039 18.7567C21.8439 18.6386 21.8913 18.5231 21.9486 18.412C21.9509 18.4076 21.9542 18.4035 21.9564 18.3991C22.0116 18.2936 22.0749 18.1925 22.1448 18.0952C22.1656 18.0663 22.1889 18.0396 22.2107 18.0115C22.2466 17.9656 22.2866 17.9223 22.3262 17.8786C22.9533 18.8822 23.2824 20.0312 23.2824 21.2358C23.2824 21.4734 23.2687 21.7111 23.2424 21.9476C23.2187 21.9376 23.1943 21.9298 23.171 21.9191C23.1384 21.9043 23.1062 21.8884 23.0743 21.8725C23.0081 21.8388 22.944 21.8021 22.8815 21.7629C22.8541 21.7459 22.8263 21.7296 22.7997 21.7118C22.7164 21.6555 22.6361 21.5952 22.5602 21.5297C22.5572 21.5271 22.5535 21.5249 22.5509 21.5219C22.4717 21.453 22.398 21.3779 22.3277 21.2998C22.3073 21.2772 22.2888 21.2528 22.2692 21.2295C22.2211 21.1717 22.1748 21.1121 22.1319 21.0499C22.1115 21.0203 22.0919 20.9907 22.0726 20.9603C22.0327 20.8974 21.9956 20.8319 21.9612 20.7653C21.946 20.7364 21.9301 20.7079 21.9161 20.6783C21.8705 20.5816 21.8291 20.4821 21.7954 20.3788C21.755 20.2548 21.7265 20.1293 21.7054 20.0038C21.6984 19.9635 21.6962 19.9231 21.691 19.8828C21.6806 19.7969 21.6732 19.7114 21.6714 19.6258C21.6706 19.5799 21.6717 19.5344 21.6732 19.4889C21.6766 19.4063 21.6832 19.3256 21.694 19.2449ZM24.2404 17.015C25.3572 17.015 26.339 17.7279 26.684 18.7889C27.1215 20.1378 26.3808 21.5915 25.0348 22.029C24.8038 22.1035 24.568 22.1412 24.3315 22.1497C24.3689 21.8458 24.3933 21.5408 24.3933 21.2354C24.3933 19.7958 23.9924 18.4235 23.2295 17.2293C23.3002 17.199 23.3694 17.1653 23.4427 17.1416C23.7022 17.0575 23.9706 17.015 24.2404 17.015ZM19.3463 21.2339C19.3463 19.8961 18.258 18.8074 16.9198 18.8074C15.5816 18.8074 14.4932 19.8957 14.4932 21.2339C14.4932 22.5721 15.5816 23.6604 16.9198 23.6604C18.258 23.6604 19.3463 22.5717 19.3463 21.2339ZM16.9201 22.5499C16.1946 22.5499 15.6041 21.9595 15.6041 21.2339C15.6041 20.5084 16.1946 19.9179 16.9201 19.9179C17.6457 19.9179 18.2361 20.5084 18.2361 21.2339C18.2361 21.9595 17.6457 22.5499 16.9201 22.5499Z" fill="white" fill-opacity="0.75"/>
<path d="M39.9164 36.3203H23.6057C29.3068 33.8969 33.3148 28.2412 33.3148 21.6661C33.3148 12.8911 26.1757 5.7519 17.4006 5.7519C8.62554 5.7519 1.48638 12.8911 1.48638 21.6661C1.48638 30.4412 8.62554 37.5803 17.4006 37.5803H39.9164C40.2646 37.5803 40.5464 37.2985 40.5464 36.9503C40.5464 36.6021 40.2646 36.3203 39.9164 36.3203ZM2.74638 21.6661C2.74638 13.5857 9.32022 7.0119 17.4006 7.0119C25.481 7.0119 32.0548 13.5857 32.0548 21.6661C32.0548 29.7465 25.481 36.3203 17.4006 36.3203C9.32022 36.3203 2.74638 29.7465 2.74638 21.6661Z" fill="white" fill-opacity="0.75"/>
<path d="M39.9164 35.8203H25.7049C30.553 32.9652 33.8148 27.6907 33.8148 21.6661C33.8148 12.6149 26.4518 5.2519 17.4006 5.2519C8.3494 5.2519 0.98638 12.6149 0.98638 21.6661C0.98638 30.7173 8.3494 38.0803 17.4006 38.0803H39.9164C40.5407 38.0803 41.0464 37.5746 41.0464 36.9503C41.0464 36.326 40.5407 35.8203 39.9164 35.8203ZM3.24638 21.6661C3.24638 13.8619 9.59636 7.5119 17.4006 7.5119C25.2048 7.5119 31.5548 13.8619 31.5548 21.6661C31.5548 29.4703 25.2048 35.8203 17.4006 35.8203C9.59636 35.8203 3.24638 29.4703 3.24638 21.6661Z" stroke="white" stroke-opacity="0.75"/>
</svg>
