<svg width="18" height="21" viewBox="0 0 18 21" fill="none" xmlns="http://www.w3.org/2000/svg">
<path d="M17.52 13.21L15.72 11.4V6.93999C15.7439 5.28381 15.1679 3.6749 14.0981 2.41032C13.0284 1.14575 11.5372 0.310921 9.9 0.0599858C8.94981 -0.065147 7.98386 0.0138007 7.0666 0.291561C6.14934 0.569322 5.30187 1.03951 4.58072 1.67075C3.85958 2.30199 3.28134 3.07976 2.8846 3.95218C2.48787 4.8246 2.28175 5.7716 2.28 6.72999V11.4L0.479997 13.21C0.253903 13.4399 0.10058 13.7313 0.039197 14.0478C-0.0221862 14.3643 0.0110931 14.6919 0.134874 14.9896C0.258656 15.2873 0.467447 15.542 0.735148 15.7217C1.00285 15.9014 1.31758 15.9982 1.64 16H5V16.34C5.04671 17.3552 5.49395 18.3105 6.24372 18.9965C6.9935 19.6826 7.98465 20.0434 9 20C10.0153 20.0434 11.0065 19.6826 11.7563 18.9965C12.506 18.3105 12.9533 17.3552 13 16.34V16H16.36C16.6824 15.9982 16.9971 15.9014 17.2648 15.7217C17.5325 15.542 17.7413 15.2873 17.8651 14.9896C17.9889 14.6919 18.0222 14.3643 17.9608 14.0478C17.8994 13.7313 17.7461 13.4399 17.52 13.21ZM11 16.34C10.9445 16.821 10.7056 17.262 10.3331 17.5713C9.9605 17.8805 9.48298 18.0341 9 18C8.51701 18.0341 8.0395 17.8805 7.66692 17.5713C7.29435 17.262 7.05545 16.821 7 16.34V16H11V16.34ZM2.51 14L3.69 12.82C3.87717 12.6339 4.02566 12.4127 4.12692 12.169C4.22818 11.9252 4.28021 11.6639 4.28 11.4V6.72999C4.28054 6.05539 4.42538 5.38871 4.70479 4.7747C4.9842 4.16068 5.39172 3.61354 5.9 3.16999C6.40142 2.71567 6.99557 2.37574 7.64134 2.17372C8.2871 1.9717 8.96906 1.91242 9.64 1.99999C10.7965 2.18776 11.8462 2.787 12.5959 3.68737C13.3456 4.58773 13.7448 5.72862 13.72 6.89999V11.4C13.7185 11.6632 13.7689 11.9241 13.8685 12.1678C13.968 12.4115 14.1146 12.6331 14.3 12.82L15.49 14H2.51Z" fill="white" fill-opacity="0.76"/>
</svg>
