<svg width="22" height="22" viewBox="0 0 22 22" fill="none" xmlns="http://www.w3.org/2000/svg">
<path d="M2.59406 15.1146C4.11814 16.6404 6.14773 17.5563 8.30048 17.6899C10.4532 17.8235 12.5805 17.1654 14.2816 15.8397L20.1348 21.6911C20.3423 21.8916 20.6204 22.0025 20.9089 22C21.1975 21.9975 21.4736 21.8817 21.6776 21.6777C21.8817 21.4737 21.9974 21.1978 22 20.9093C22.0025 20.6208 21.8915 20.3428 21.691 20.1353L15.8379 14.2839C17.2228 12.5071 17.8776 10.269 17.6687 8.02619C17.4597 5.78336 16.4029 3.70467 14.7136 2.21405C13.0243 0.723431 10.8299 -0.0668296 8.5778 0.00443236C6.32573 0.0756943 4.18567 1.00311 2.59406 2.59755C1.77167 3.41928 1.11929 4.39494 0.674192 5.46881C0.229093 6.54267 0 7.69368 0 8.85608C0 10.0185 0.229093 11.1695 0.674192 12.2434C1.11929 13.3172 1.77167 14.2929 2.59406 15.1146ZM4.15035 4.15558C5.2384 3.06787 6.67004 2.39095 8.20135 2.24016C9.73265 2.08937 11.2689 2.47403 12.5483 3.32861C13.8277 4.18319 14.7712 5.45481 15.2179 6.92682C15.6647 8.39883 15.5871 9.98015 14.9983 11.4014C14.4096 12.8226 13.3461 13.9958 11.9892 14.721C10.6322 15.4463 9.06567 15.6787 7.55648 15.3788C6.0473 15.0789 4.68882 14.2651 3.71252 13.0761C2.73621 11.8871 2.20247 10.3965 2.20224 8.85828C2.19922 7.98417 2.36987 7.11816 2.70429 6.3105C3.03871 5.50285 3.53023 4.76962 4.15035 4.15338V4.15558Z" fill="white" fill-opacity="0.75"/>
</svg>
