<svg width="24" height="29" viewBox="0 0 24 29" fill="none" xmlns="http://www.w3.org/2000/svg">
<path d="M21.707 13.2455L13.707 3.86236C13.5672 3.69832 13.389 3.58661 13.195 3.54135C13.0011 3.49608 12.8 3.5193 12.6173 3.60806C12.4346 3.69682 12.2784 3.84714 12.1685 4.04001C12.0587 4.23288 12 4.45963 12 4.6916V8.84942C9.2683 9.14599 6.72926 10.6275 4.87973 13.004C3.0302 15.3804 2.00331 18.4809 2 21.6986V23.4579C1.99998 23.7015 2.06463 23.9391 2.18495 24.1376C2.30528 24.3361 2.47532 24.4858 2.67147 24.5658C2.86762 24.6459 3.08014 24.6523 3.27954 24.5842C3.47894 24.5161 3.65531 24.3769 3.78418 24.1859C4.76383 22.8194 5.96583 21.6955 7.31997 20.8801C8.67411 20.0646 10.1532 19.5738 11.6709 19.4364C11.7207 19.429 11.8457 19.4175 12 19.4061V23.4579C12 23.6899 12.0587 23.9167 12.1685 24.1095C12.2784 24.3024 12.4346 24.4527 12.6173 24.5415C12.8 24.6302 13.0011 24.6535 13.195 24.6082C13.389 24.5629 13.5672 24.4512 13.707 24.2872L21.707 14.904C21.7999 14.7951 21.8736 14.6659 21.9238 14.5236C21.9741 14.3813 22 14.2288 22 14.0748C22 13.9208 21.9741 13.7683 21.9238 13.626C21.8736 13.4837 21.7999 13.3544 21.707 13.2455ZM14 20.6265V18.1799C14 18.0259 13.9742 17.8733 13.924 17.731C13.8737 17.5887 13.8001 17.4594 13.7072 17.3505C13.6143 17.2415 13.5041 17.1551 13.3827 17.0962C13.2614 17.0373 13.1313 17.007 13 17.007C12.7451 17.007 11.7041 17.0649 11.4385 17.1067C8.74308 17.3979 6.17736 18.599 4.05176 20.5646C4.29289 17.9776 5.33918 15.5858 6.99027 13.8473C8.64135 12.1088 10.7812 11.1457 13 11.1425C13.1313 11.1426 13.2614 11.1123 13.3827 11.0533C13.5041 10.9944 13.6143 10.908 13.7072 10.7991C13.8001 10.6902 13.8737 10.5608 13.924 10.4185C13.9742 10.2762 14 10.1237 14 9.96963V7.52304L19.5859 14.0748L14 20.6265Z" fill="white" fill-opacity="0.75"/>
</svg>
