<svg width="34" height="34" viewBox="0 0 34 34" fill="none" xmlns="http://www.w3.org/2000/svg">
<path d="M12.325 20.1167C11.3333 20.825 10.0583 21.25 8.78333 21.25H5.66667C4.81667 21.25 4.25 21.8167 4.25 22.6667C4.25 23.5167 4.81667 24.0833 5.66667 24.0833H8.78333C10.625 24.0833 12.4667 23.5167 14.025 22.3833C14.5917 21.9583 14.7333 20.9667 14.3083 20.4C13.7417 19.6917 12.8917 19.55 12.325 20.1167ZM18.4167 15.1583C18.8417 15.1583 19.2667 15.0167 19.55 14.7333C20.5417 13.4583 22.1 12.75 23.8 12.75H24.9333L24.5083 13.175C23.9417 13.7417 23.9417 14.5917 24.5083 15.1583C24.7917 15.4417 25.2167 15.5833 25.5 15.5833C25.7833 15.5833 26.2083 15.4417 26.4917 15.1583L29.325 12.325C29.4667 12.1833 29.6083 12.0417 29.6083 11.9C29.75 11.6167 29.75 11.1917 29.6083 10.7667C29.4667 10.625 29.4667 10.4833 29.325 10.3417L26.4917 7.50833C25.925 6.94166 25.075 6.94166 24.5083 7.50833C23.9417 8.07499 23.9417 8.92499 24.5083 9.49166L24.9333 9.91666H23.8C21.25 9.91666 18.9833 11.05 17.2833 12.8917C16.7167 13.4583 16.8583 14.3083 17.425 14.875C17.7083 15.1583 18.1333 15.1583 18.4167 15.1583Z" fill="white" fill-opacity="0.75"/>
<path d="M29.325 21.675L26.4917 18.8417C25.925 18.275 25.075 18.275 24.5083 18.8417C23.9417 19.4083 23.9417 20.2583 24.5083 20.825L24.9333 21.25H22.8083C20.5417 21.25 18.7 19.975 17.7083 17.9917L16.0083 14.5917C14.5917 11.7583 11.6167 9.91667 8.35833 9.91667H5.66667C4.81667 9.91667 4.25 10.4833 4.25 11.3333C4.25 12.1833 4.81667 12.75 5.66667 12.75H8.35833C10.625 12.75 12.4667 14.025 13.4583 16.0083L15.1583 19.4083C16.575 22.3833 19.55 24.225 22.8083 24.225H24.9333L24.5083 24.65C23.9417 25.2167 23.9417 26.0667 24.5083 26.6333C24.7917 26.9167 25.2167 27.0583 25.5 27.0583C25.7833 27.0583 26.2083 26.9167 26.4917 26.6333L29.325 23.8C29.8917 23.0917 29.8917 22.2417 29.325 21.675Z" fill="white" fill-opacity="0.75"/>
</svg>
