<svg width="29" height="29" viewBox="0 0 29 29" fill="none" xmlns="http://www.w3.org/2000/svg">
<path d="M10.8748 12.0833C10.5544 12.0833 10.247 12.2106 10.0204 12.4373C9.79381 12.6639 9.6665 12.9712 9.6665 13.2917V15.7083C9.6665 16.0288 9.79381 16.3362 10.0204 16.5628C10.247 16.7894 10.5544 16.9167 10.8748 16.9167C11.1953 16.9167 11.5027 16.7894 11.7293 16.5628C11.9559 16.3362 12.0832 16.0288 12.0832 15.7083V13.2917C12.0832 12.9712 11.9559 12.6639 11.7293 12.4373C11.5027 12.2106 11.1953 12.0833 10.8748 12.0833ZM25.3748 13.2917C25.6953 13.2917 26.0027 13.1644 26.2293 12.9378C26.4559 12.7112 26.5832 12.4038 26.5832 12.0833V7.25001C26.5832 6.92954 26.4559 6.62219 26.2293 6.39558C26.0027 6.16898 25.6953 6.04167 25.3748 6.04167H3.62484C3.30437 6.04167 2.99702 6.16898 2.77042 6.39558C2.54381 6.62219 2.4165 6.92954 2.4165 7.25001V12.0833C2.4165 12.4038 2.54381 12.7112 2.77042 12.9378C2.99702 13.1644 3.30437 13.2917 3.62484 13.2917C3.94531 13.2917 4.25265 13.419 4.47926 13.6456C4.70586 13.8722 4.83317 14.1795 4.83317 14.5C4.83317 14.8205 4.70586 15.1278 4.47926 15.3544C4.25265 15.581 3.94531 15.7083 3.62484 15.7083C3.30437 15.7083 2.99702 15.8356 2.77042 16.0623C2.54381 16.2889 2.4165 16.5962 2.4165 16.9167V21.75C2.4165 22.0705 2.54381 22.3778 2.77042 22.6044C2.99702 22.831 3.30437 22.9583 3.62484 22.9583H25.3748C25.6953 22.9583 26.0027 22.831 26.2293 22.6044C26.4559 22.3778 26.5832 22.0705 26.5832 21.75V16.9167C26.5832 16.5962 26.4559 16.2889 26.2293 16.0623C26.0027 15.8356 25.6953 15.7083 25.3748 15.7083C25.0544 15.7083 24.747 15.581 24.5204 15.3544C24.2938 15.1278 24.1665 14.8205 24.1665 14.5C24.1665 14.1795 24.2938 13.8722 24.5204 13.6456C24.747 13.419 25.0544 13.2917 25.3748 13.2917ZM24.1665 11.0925C23.4667 11.3465 22.8621 11.8098 22.4348 12.4195C22.0075 13.0291 21.7783 13.7555 21.7783 14.5C21.7783 15.2445 22.0075 15.9709 22.4348 16.5806C22.8621 17.1902 23.4667 17.6535 24.1665 17.9075V20.5417H12.0832C12.0832 20.2212 11.9559 19.9139 11.7293 19.6873C11.5027 19.4606 11.1953 19.3333 10.8748 19.3333C10.5544 19.3333 10.247 19.4606 10.0204 19.6873C9.79381 19.9139 9.6665 20.2212 9.6665 20.5417H4.83317V17.9075C5.53298 17.6535 6.13761 17.1902 6.5649 16.5806C6.99219 15.9709 7.22141 15.2445 7.22141 14.5C7.22141 13.7555 6.99219 13.0291 6.5649 12.4195C6.13761 11.8098 5.53298 11.3465 4.83317 11.0925V8.45834H9.6665C9.6665 8.77881 9.79381 9.08615 10.0204 9.31276C10.247 9.53937 10.5544 9.66667 10.8748 9.66667C11.1953 9.66667 11.5027 9.53937 11.7293 9.31276C11.9559 9.08615 12.0832 8.77881 12.0832 8.45834H24.1665V11.0925Z" fill="white" fill-opacity="0.75"/>
</svg>
