<svg width="34" height="33" viewBox="0 0 34 33" fill="none" xmlns="http://www.w3.org/2000/svg">
<path d="M28.9563 12.2602H26.6896C26.0637 12.2602 25.5563 12.7676 25.5563 13.3935C25.5563 14.0194 26.0637 14.5268 26.6896 14.5268H28.9563C29.5822 14.5268 30.0896 14.0194 30.0896 13.3935C30.0896 12.7676 29.5822 12.2602 28.9563 12.2602Z" fill="white" fill-opacity="0.75"/>
<path d="M28.9563 17.9268H26.6896C26.0637 17.9268 25.5563 18.4342 25.5563 19.0601C25.5563 19.686 26.0637 20.1934 26.6896 20.1934H28.9563C29.5822 20.1934 30.0896 19.686 30.0896 19.0601C30.0896 18.4342 29.5822 17.9268 28.9563 17.9268Z" fill="white" fill-opacity="0.75"/>
<path d="M27.1996 28.6139C27.1996 27.988 26.6922 27.4806 26.0663 27.4806C25.4404 27.4806 24.933 27.988 24.933 28.6139V30.8806C24.933 31.5065 25.4404 32.0139 26.0663 32.0139C26.6922 32.0139 27.1996 31.5065 27.1996 30.8806V28.6139Z" fill="white" fill-opacity="0.75"/>
<path d="M9.06655 28.6139C9.06655 27.988 8.55914 27.4806 7.93322 27.4806C7.3073 27.4806 6.7999 27.988 6.7999 28.6139V30.8806C6.7999 31.5065 7.3073 32.0139 7.93322 32.0139C8.55914 32.0139 9.06655 31.5065 9.06655 30.8806V28.6139Z" fill="white" fill-opacity="0.75"/>
<path d="M30.5998 28.6935H3.39998C2.49825 28.6935 1.63345 28.3353 0.995832 27.6977C0.358211 27.0601 0 26.1953 0 25.2936V7.19432C0 6.29259 0.358211 5.42779 0.995832 4.79017C1.63345 4.15255 2.49825 3.79434 3.39998 3.79434H30.5998C31.5016 3.79434 32.3664 4.15255 33.004 4.79017C33.6416 5.42779 33.9998 6.29259 33.9998 7.19432V25.2596C34.0043 25.7089 33.9197 26.1547 33.7508 26.5711C33.582 26.9876 33.3323 27.3664 33.0161 27.6857C32.6999 28.0051 32.3236 28.2585 31.9089 28.4315C31.4941 28.6045 31.0492 28.6936 30.5998 28.6935ZM3.39998 6.02699C3.09941 6.02699 2.81114 6.14639 2.5986 6.35893C2.38606 6.57148 2.26666 6.85974 2.26666 7.16032V25.2596C2.26666 25.5601 2.38606 25.8484 2.5986 26.0609C2.81114 26.2735 3.09941 26.3929 3.39998 26.3929H30.5998C30.9004 26.3929 31.1887 26.2735 31.4012 26.0609C31.6138 25.8484 31.7332 25.5601 31.7332 25.2596V7.19432C31.7332 6.89374 31.6138 6.60548 31.4012 6.39294C31.1887 6.18039 30.9004 6.06099 30.5998 6.06099L3.39998 6.02699Z" fill="white" fill-opacity="0.75"/>
<path d="M22.2019 24.7269H6.55064C5.92335 24.7239 5.3226 24.4734 4.87904 24.0298C4.43548 23.5863 4.18496 22.9855 4.18198 22.3582V10.481C4.18498 9.74953 4.47765 9.04906 4.99592 8.53292C5.5142 8.01677 6.21585 7.72698 6.9473 7.72698H22.2019C22.8292 7.72996 23.4299 7.98047 23.8735 8.42404C24.3171 8.8676 24.5676 9.46835 24.5705 10.0956V22.3469C24.5706 22.9762 24.3214 23.5798 23.8775 24.0258C23.4336 24.4718 22.8311 24.7239 22.2019 24.7269ZM6.93597 9.99364C6.80372 9.99364 6.67688 10.0462 6.58336 10.1397C6.48984 10.2332 6.43731 10.36 6.43731 10.4923V22.3469C6.43731 22.374 6.44805 22.3999 6.46718 22.419C6.48631 22.4382 6.51225 22.4489 6.53931 22.4489H22.2019C22.2289 22.4489 22.2549 22.4382 22.274 22.419C22.2931 22.3999 22.3039 22.374 22.3039 22.3469V10.0956C22.3039 10.0686 22.2931 10.0426 22.274 10.0235C22.2549 10.0044 22.2289 9.99364 22.2019 9.99364H6.93597ZM25.0805 1.14235C25.0813 1.34205 25.0293 1.53842 24.9298 1.71157C24.8303 1.88471 24.6868 2.02849 24.5139 2.12834L21.1212 3.79433H12.8788L9.48596 2.12834C9.35609 2.0543 9.24216 1.9553 9.15072 1.83704C9.05927 1.71878 8.99213 1.5836 8.95316 1.43928C8.91418 1.29497 8.90414 1.14436 8.92361 0.996148C8.94309 0.847933 8.99169 0.705035 9.06663 0.575684C9.16551 0.404396 9.30751 0.261968 9.4785 0.162557C9.64948 0.0631467 9.84351 0.0102141 10.0413 0.00902029C10.2398 0.00764916 10.4352 0.0584555 10.608 0.156353L16.9999 3.79433L23.3919 0.14502C23.6535 -0.00180335 23.9626 -0.0389183 24.2516 0.0418098C24.5405 0.122538 24.7856 0.314523 24.9332 0.575684C25.0311 0.748407 25.0819 0.943816 25.0805 1.14235Z" fill="white" fill-opacity="0.75"/>
</svg>
